<svg width="3160" height="365" viewBox="0 0 3160 365" fill="none" xmlns="http://www.w3.org/2000/svg">
<g clip-path="url(#clip0_41_180)">
<path d="M1767 83.5H1738V126.07H1767V83.5Z" fill="#F4C63A"/>
<path d="M157.349 93.7083C156.284 82.9662 151.712 74.621 143.633 68.6728C135.554 62.7247 124.59 59.7506 110.741 59.7506C101.33 59.7506 93.3845 61.0823 86.9037 63.7456C80.4229 66.3202 75.4513 69.9157 71.9889 74.5322C68.6153 79.1487 66.9285 84.3866 66.9285 90.246C66.751 95.1288 67.7719 99.3902 69.9914 103.03C72.2996 106.67 75.4513 109.822 79.4463 112.485C83.4413 115.06 88.0578 117.324 93.2957 119.277C98.5336 121.141 104.127 122.739 110.075 124.071L134.578 129.93C146.474 132.593 157.394 136.145 167.337 140.583C177.28 145.022 185.892 150.482 193.171 156.963C200.451 163.444 206.089 171.079 210.084 179.868C214.168 188.657 216.254 198.733 216.343 210.097C216.254 226.787 211.992 241.258 203.559 253.51C195.213 265.672 183.139 275.127 167.337 281.874C151.623 288.533 132.669 291.862 110.474 291.862C88.4573 291.862 69.2812 288.488 52.9459 281.741C36.6995 274.994 24.0042 265.006 14.86 251.778C5.80462 238.462 1.05497 221.993 0.611084 202.373H56.4083C57.0297 211.517 59.6487 219.152 64.2652 225.278C68.9704 231.315 75.2293 235.887 83.0418 238.994C90.9431 242.013 99.8653 243.522 109.809 243.522C119.574 243.522 128.052 242.102 135.244 239.261C142.523 236.42 148.161 232.469 152.156 227.409C156.151 222.348 158.148 216.533 158.148 209.964C158.148 203.838 156.328 198.689 152.688 194.516C149.137 190.344 143.899 186.793 136.975 183.863C130.139 180.933 121.749 178.27 111.806 175.873L82.1096 168.415C59.116 162.822 40.9608 154.078 27.6441 142.181C14.3273 130.285 7.71335 114.261 7.80213 94.1078C7.71335 77.5951 12.1079 63.1686 20.9857 50.8284C29.9523 38.4882 42.2481 28.8557 57.8731 21.931C73.4981 15.0063 91.2538 11.5439 111.14 11.5439C131.382 11.5439 149.049 15.0063 164.141 21.931C179.322 28.8557 191.13 38.4882 199.563 50.8284C207.997 63.1686 212.348 77.4619 212.614 93.7083H157.349ZM314.542 15.2726V288H257.812V15.2726H314.542ZM456.953 291.995C435.912 291.995 417.801 287.734 402.62 279.211C387.528 270.599 375.898 258.437 367.73 242.723C359.563 226.92 355.479 208.233 355.479 186.659C355.479 165.619 359.563 147.153 367.73 131.262C375.898 115.37 387.395 102.986 402.221 94.1078C417.135 85.23 434.625 80.7911 454.689 80.7911C468.183 80.7911 480.745 82.9662 492.375 87.3163C504.094 91.5777 514.303 98.0141 523.004 106.626C531.793 115.237 538.629 126.068 543.511 139.119C548.394 152.08 550.836 167.261 550.836 184.662V200.243H378.117V165.086H497.435C497.435 156.919 495.66 149.683 492.109 143.38C488.558 137.077 483.63 132.149 477.327 128.598C471.113 124.958 463.877 123.138 455.621 123.138C447.009 123.138 439.374 125.136 432.716 129.131C426.146 133.037 420.997 138.32 417.269 144.978C413.54 151.548 411.631 158.872 411.542 166.951V200.376C411.542 210.496 413.407 219.241 417.135 226.61C420.953 233.978 426.324 239.66 433.249 243.655C440.173 247.65 448.385 249.648 457.885 249.648C464.188 249.648 469.959 248.76 475.196 246.984C480.434 245.209 484.918 242.545 488.646 238.994C492.375 235.443 495.216 231.093 497.169 225.944L549.637 229.406C546.974 242.013 541.514 253.021 533.258 262.432C525.09 271.754 514.525 279.033 501.564 284.271C488.691 289.42 473.82 291.995 456.953 291.995ZM684.824 291.995C663.783 291.995 645.672 287.734 630.491 279.211C615.399 270.599 603.769 258.437 595.601 242.723C587.434 226.92 583.35 208.233 583.35 186.659C583.35 165.619 587.434 147.153 595.601 131.262C603.769 115.37 615.266 102.986 630.092 94.1078C645.006 85.23 662.496 80.7911 682.56 80.7911C696.054 80.7911 708.616 82.9662 720.246 87.3163C731.965 91.5777 742.174 98.0141 750.875 106.626C759.664 115.237 766.5 126.068 771.383 139.119C776.265 152.08 778.707 167.261 778.707 184.662V200.243H605.988V165.086H725.307C725.307 156.919 723.531 149.683 719.98 143.38C716.429 137.077 711.502 132.149 705.198 128.598C698.984 124.958 691.748 123.138 683.492 123.138C674.88 123.138 667.245 125.136 660.587 129.131C654.017 133.037 648.868 138.32 645.14 144.978C641.411 151.548 639.502 158.872 639.413 166.951V200.376C639.413 210.496 641.278 219.241 645.006 226.61C648.824 233.978 654.195 239.66 661.12 243.655C668.044 247.65 676.256 249.648 685.756 249.648C692.059 249.648 697.83 248.76 703.068 246.984C708.305 245.209 712.789 242.545 716.517 238.994C720.246 235.443 723.087 231.093 725.04 225.944L777.508 229.406C774.845 242.013 769.385 253.021 761.129 262.432C752.961 271.754 742.396 279.033 729.435 284.271C716.562 289.42 701.691 291.995 684.824 291.995ZM819.477 364.705V83.4544H875.408V117.812H877.938C880.424 112.308 884.019 106.714 888.725 101.033C893.519 95.262 899.733 90.4679 907.368 86.6505C915.092 82.7442 924.68 80.7911 936.132 80.7911C951.047 80.7911 964.808 84.6973 977.414 92.5098C990.021 100.234 1000.1 111.908 1007.64 127.533C1015.19 143.069 1018.96 162.556 1018.96 185.994C1018.96 208.81 1015.28 228.075 1007.91 243.788C1000.63 259.413 990.687 271.265 978.08 279.344C965.562 287.334 951.535 291.329 935.999 291.329C924.991 291.329 915.624 289.509 907.901 285.869C900.266 282.229 894.007 277.657 889.124 272.153C884.241 266.56 880.513 260.923 877.938 255.241H876.207V364.705H819.477ZM875.008 185.727C875.008 197.89 876.695 208.499 880.069 217.554C883.442 226.61 888.325 233.668 894.717 238.728C901.109 243.7 908.877 246.185 918.021 246.185C927.254 246.185 935.067 243.655 941.459 238.595C947.851 233.446 952.689 226.343 955.974 217.288C959.348 208.144 961.035 197.624 961.035 185.727C961.035 173.92 959.392 163.533 956.107 154.566C952.823 145.599 947.984 138.586 941.592 133.526C935.2 128.465 927.343 125.935 918.021 125.935C908.788 125.935 900.976 128.376 894.584 133.259C888.281 138.142 883.442 145.067 880.069 154.033C876.695 163 875.008 173.565 875.008 185.727Z" fill="#285D77"/>
<path d="M2410.79 220.068C2410.79 203.71 2412.31 189.978 2415.37 178.869C2418.42 167.761 2424.28 158.85 2432.94 152.136C2441.61 145.422 2454.19 140.6 2470.66 137.67C2487.27 134.619 2508.99 133.032 2535.85 132.91H2601.4C2620.44 132.91 2635.28 132.299 2645.9 131.079C2656.64 129.736 2664.45 127.294 2669.33 123.754C2674.22 120.092 2677.21 114.843 2678.31 108.007C2679.53 101.049 2680.14 91.9551 2680.14 80.7246C2680.14 69.0059 2679.04 59.7896 2676.84 53.0757C2674.64 46.3618 2670.31 41.479 2663.84 38.4272C2657.37 35.3755 2647.79 33.4224 2635.09 32.5679C2622.52 31.7134 2605.8 31.2861 2584.92 31.2861H2545.01C2523.15 31.2861 2505.64 31.7134 2492.45 32.5679C2479.39 33.4224 2469.5 35.3755 2462.79 38.4272C2456.08 41.479 2451.56 46.3618 2449.24 53.0757C2447.04 59.7896 2445.95 69.0059 2445.95 80.7246H2410.79C2410.79 64.7334 2412.56 51.5498 2416.1 41.1738C2419.76 30.7979 2426.29 22.6802 2435.69 16.8208C2445.21 10.9614 2458.64 6.87207 2475.97 4.55273C2493.31 2.11133 2515.71 0.890625 2543.17 0.890625H2586.75C2613.24 0.890625 2634.91 2.11133 2651.76 4.55273C2668.6 6.87207 2681.6 10.9614 2690.76 16.8208C2700.03 22.6802 2706.44 30.7979 2709.98 41.1738C2713.52 51.5498 2715.29 64.7334 2715.29 80.7246C2715.29 101.232 2712.55 117.468 2707.05 129.431C2701.68 141.271 2692.16 149.755 2678.49 154.882C2664.94 159.887 2645.77 162.39 2620.99 162.39H2540.43C2518.58 162.39 2501.3 163.122 2488.61 164.587C2475.91 166.052 2466.51 168.859 2460.41 173.01C2454.31 177.038 2450.34 182.836 2448.51 190.405C2446.8 197.973 2445.95 207.861 2445.95 220.068V258.703H2704.12V288H2410.79V220.068ZM2764.27 288V252.844H2799.43V288H2764.27ZM3124.71 143.713C3124.71 122.229 3123.98 104.528 3122.51 90.6123C3121.05 76.6963 3118.3 65.71 3114.27 57.6533C3110.37 49.5967 3104.63 43.7373 3097.06 40.0752C3089.61 36.291 3079.91 33.9106 3067.95 32.9341C3055.98 31.8354 3041.27 31.2861 3023.82 31.2861H2986.1C2968.64 31.2861 2953.93 31.8354 2941.97 32.9341C2930.01 33.9106 2920.24 36.291 2912.67 40.0752C2905.23 43.7373 2899.49 49.5967 2895.46 57.6533C2891.56 65.71 2888.87 76.6963 2887.41 90.6123C2885.94 104.528 2885.21 122.229 2885.21 143.713V151.037C2885.21 171.789 2885.94 189.001 2887.41 202.673C2888.87 216.345 2891.56 227.27 2895.46 235.449C2899.49 243.627 2905.23 249.731 2912.67 253.759C2920.24 257.788 2930.01 260.412 2941.97 261.633C2953.93 262.854 2968.64 263.464 2986.1 263.464H3023.82C3041.27 263.464 3055.98 262.854 3067.95 261.633C3079.91 260.412 3089.61 257.788 3097.06 253.759C3104.63 249.731 3110.37 243.627 3114.27 235.449C3118.3 227.27 3121.05 216.345 3122.51 202.673C3123.98 189.001 3124.71 171.789 3124.71 151.037V143.713ZM2850.05 151.037V143.713C2850.05 118.811 2851.27 97.9365 2853.71 81.0908C2856.16 64.123 2860.37 50.3291 2866.35 39.709C2872.33 29.0889 2880.45 20.9712 2890.7 15.356C2901.08 9.74072 2914.08 5.95654 2929.7 4.00342C2945.33 1.92822 2964.13 0.890625 2986.1 0.890625H3023.82C3045.79 0.890625 3064.59 1.92822 3080.22 4.00342C3095.84 5.95654 3108.78 9.74072 3119.03 15.356C3129.41 20.9712 3137.59 29.0889 3143.57 39.709C3149.55 50.3291 3153.76 64.123 3156.2 81.0908C3158.65 97.9365 3159.87 118.811 3159.87 143.713V151.037C3159.87 181.188 3157.85 205.664 3153.82 224.462C3149.92 243.261 3142.96 257.666 3132.95 267.675C3123.06 277.685 3109.27 284.521 3091.57 288.183C3073.87 291.967 3051.28 293.859 3023.82 293.859H2986.1C2958.63 293.859 2936.05 291.967 2918.35 288.183C2900.65 284.521 2886.79 277.685 2876.79 267.675C2866.9 257.666 2859.94 243.261 2855.91 224.462C2852 205.664 2850.05 181.188 2850.05 151.037Z" fill="white"/>
<path d="M1152.14 288V15.2727H1261.34C1281.4 15.2727 1298.14 18.2468 1311.54 24.195C1324.95 30.1431 1335.02 38.3995 1341.77 48.9641C1348.52 59.44 1351.89 71.5139 1351.89 85.1857C1351.89 95.8391 1349.76 105.205 1345.5 113.284C1341.24 121.274 1335.38 127.844 1327.92 132.993C1320.55 138.053 1312.12 141.649 1302.62 143.779V146.443C1313.01 146.887 1322.73 149.816 1331.78 155.232C1340.93 160.647 1348.34 168.238 1354.02 178.004C1359.7 187.68 1362.54 199.222 1362.54 212.627C1362.54 227.098 1358.95 240.015 1351.76 251.379C1344.66 262.654 1334.14 271.576 1320.2 278.146C1306.26 284.715 1289.08 288 1268.66 288H1152.14ZM1209.8 240.859H1256.81C1272.88 240.859 1284.6 237.796 1291.97 231.67C1299.33 225.456 1303.02 217.199 1303.02 206.901C1303.02 199.355 1301.2 192.696 1297.56 186.926C1293.92 181.155 1288.72 176.627 1281.98 173.343C1275.32 170.058 1267.37 168.415 1258.14 168.415H1209.8V240.859ZM1209.8 129.397H1252.55C1260.45 129.397 1267.46 128.021 1273.59 125.269C1279.8 122.428 1284.69 118.433 1288.24 113.284C1291.88 108.135 1293.7 101.965 1293.7 94.7738C1293.7 84.9194 1290.19 76.9737 1283.18 70.9368C1276.25 64.8998 1266.4 61.8814 1253.61 61.8814H1209.8V129.397ZM1495.97 291.995C1474.93 291.995 1456.81 287.734 1441.63 279.211C1426.54 270.599 1414.91 258.437 1406.74 242.723C1398.58 226.92 1394.49 208.233 1394.49 186.659C1394.49 165.619 1398.58 147.153 1406.74 131.262C1414.91 115.37 1426.41 102.986 1441.23 94.1079C1456.15 85.2301 1473.64 80.7912 1493.7 80.7912C1507.2 80.7912 1519.76 82.9663 1531.39 87.3164C1543.11 91.5778 1553.32 98.0142 1562.02 106.626C1570.81 115.237 1577.64 126.068 1582.53 139.119C1587.41 152.08 1589.85 167.261 1589.85 184.662V200.243H1417.13V165.086H1536.45C1536.45 156.919 1534.67 149.683 1531.12 143.38C1527.57 137.077 1522.64 132.149 1516.34 128.598C1510.13 124.958 1502.89 123.138 1494.63 123.138C1486.02 123.138 1478.39 125.136 1471.73 129.131C1465.16 133.037 1460.01 138.32 1456.28 144.978C1452.55 151.548 1450.64 158.872 1450.56 166.951V200.376C1450.56 210.496 1452.42 219.241 1456.15 226.61C1459.97 233.978 1465.34 239.66 1472.26 243.655C1479.19 247.65 1487.4 249.648 1496.9 249.648C1503.2 249.648 1508.97 248.76 1514.21 246.984C1519.45 245.209 1523.93 242.545 1527.66 238.994C1531.39 235.443 1534.23 231.093 1536.18 225.944L1588.65 229.406C1585.99 242.013 1580.53 253.021 1572.27 262.432C1564.1 271.754 1553.54 279.033 1540.58 284.271C1527.7 289.42 1512.83 291.995 1495.97 291.995ZM1739.42 83.4545V126.068H1616.24V83.4545H1739.42ZM1644.2 34.4489H1700.93V225.145C1700.93 230.383 1701.73 234.467 1703.33 237.396C1704.93 240.237 1707.15 242.235 1709.99 243.389C1712.92 244.543 1716.29 245.12 1720.11 245.12C1722.77 245.12 1725.44 244.898 1728.1 244.454C1730.76 243.922 1732.8 243.522 1734.22 243.256L1743.15 285.47C1740.31 286.358 1736.31 287.379 1731.16 288.533C1726.01 289.776 1719.75 290.53 1712.38 290.797C1698.71 291.329 1686.73 289.509 1676.43 285.337C1666.22 281.164 1658.27 274.683 1652.59 265.894C1646.91 257.105 1644.11 246.008 1644.2 232.602V34.4489ZM1888.92 83.4545V126.068H1765.74V83.4545H1888.92ZM1793.7 34.4489H1850.43V225.145C1850.43 230.383 1851.23 234.467 1852.83 237.396C1854.43 240.237 1856.65 242.235 1859.49 243.389C1862.42 244.543 1865.79 245.12 1869.61 245.12C1872.27 245.12 1874.94 244.898 1877.6 244.454C1880.26 243.922 1882.31 243.522 1883.73 243.256L1892.65 285.47C1889.81 286.358 1885.81 287.379 1880.66 288.533C1875.51 289.776 1869.26 290.53 1861.89 290.797C1848.21 291.329 1836.23 289.509 1825.93 285.337C1815.72 281.164 1807.78 274.683 1802.09 265.894C1796.41 257.105 1793.62 246.008 1793.7 232.602V34.4489ZM2020.64 291.995C1999.6 291.995 1981.49 287.734 1966.31 279.211C1951.22 270.599 1939.59 258.437 1931.42 242.723C1923.25 226.92 1919.17 208.233 1919.17 186.659C1919.17 165.619 1923.25 147.153 1931.42 131.262C1939.59 115.37 1951.09 102.986 1965.91 94.1079C1980.83 85.2301 1998.32 80.7912 2018.38 80.7912C2031.87 80.7912 2044.44 82.9663 2056.07 87.3164C2067.79 91.5778 2077.99 98.0142 2086.7 106.626C2095.48 115.237 2102.32 126.068 2107.2 139.119C2112.09 152.08 2114.53 167.261 2114.53 184.662V200.243H1941.81V165.086H2061.13C2061.13 156.919 2059.35 149.683 2055.8 143.38C2052.25 137.077 2047.32 132.149 2041.02 128.598C2034.8 124.958 2027.57 123.138 2019.31 123.138C2010.7 123.138 2003.07 125.136 1996.41 129.131C1989.84 133.037 1984.69 138.32 1980.96 144.978C1977.23 151.548 1975.32 158.872 1975.23 166.951V200.376C1975.23 210.496 1977.1 219.241 1980.83 226.61C1984.64 233.978 1990.02 239.66 1996.94 243.655C2003.86 247.65 2012.08 249.648 2021.58 249.648C2027.88 249.648 2033.65 248.76 2038.89 246.984C2044.13 245.209 2048.61 242.545 2052.34 238.994C2056.07 235.443 2058.91 231.093 2060.86 225.944L2113.33 229.406C2110.67 242.013 2105.21 253.021 2096.95 262.432C2088.78 271.754 2078.22 279.033 2065.26 284.271C2052.38 289.42 2037.51 291.995 2020.64 291.995ZM2155.3 288V83.4545H2210.3V119.143H2212.43C2216.16 106.448 2222.41 96.8601 2231.2 90.3793C2239.99 83.8097 2250.11 80.5249 2261.57 80.5249C2264.41 80.5249 2267.47 80.7024 2270.75 81.0575C2274.04 81.4126 2276.92 81.9009 2279.41 82.5224V132.86C2276.75 132.061 2273.06 131.35 2268.36 130.729C2263.65 130.108 2259.35 129.797 2255.44 129.797C2247.09 129.797 2239.64 131.617 2233.07 135.257C2226.59 138.808 2221.44 143.779 2217.62 150.172C2213.89 156.564 2212.03 163.932 2212.03 172.277V288H2155.3Z" fill="#F4C63A"/>
</g>
<defs>
<clipPath id="clip0_41_180">
<rect width="3160" height="365" fill="white"/>
</clipPath>
</defs>
</svg>
